# xmcd CD database file
#
# Track frame offsets:
#	150
#	13456
#	29721
#	53057
#	73421
#	88333
#	118743
#	138169
#	150261
#	171502
#	183364
#	202333
#	215425
#
# Disc length: 3285 seconds
#
# Revision: 0
# Processed by: cddbd v1.5.1PL0 Copyright (c) Steve Scherf et al.
# Submitted via: CDex 1.51
#
DISCID=cb0cd30d
DTITLE=El Vagón - Institnto Crudo
DYEAR=2004
DGENRE=Blues
TTITLE0=Destrucción crepuscular
TTITLE1=La llave
TTITLE2=Maldito reloj
TTITLE3=Viejo Slide
TTITLE4=Blues picante
TTITLE5=Por quererlo todo
TTITLE6=la banda está en la ruta
TTITLE7=Estupidas canciones
TTITLE8=siete
TTITLE9=el animal
TTITLE10=el espejo
TTITLE11=pies de barro
TTITLE12=las luces
EXTD=YEAR: 2004
EXTT0=
EXTT1=
EXTT2=
EXTT3=
EXTT4=
EXTT5=
EXTT6=
EXTT7=
EXTT8=
EXTT9=
EXTT10=
EXTT11=
EXTT12=
PLAYORDER=
